<mxfile host="app.diagrams.net" modified="2023-09-10T12:59:58.417Z" agent="Mozilla/5.0 (Macintosh; Intel Mac OS X 10_15_7) AppleWebKit/537.36 (KHTML, like Gecko) Chrome/115.0.0.0 Safari/537.36" etag="1XnxqsI1oWIkAPYOMQLM" version="21.7.4" type="device">
  <diagram name="Page-1" id="qjMBpI8PeM0cGl4wMtct">
    <mxGraphModel dx="909" dy="588" grid="1" gridSize="10" guides="1" tooltips="1" connect="1" arrows="1" fold="1" page="1" pageScale="1" pageWidth="850" pageHeight="1100" math="0" shadow="0">
      <root>
        <mxCell id="0" />
        <mxCell id="1" parent="0" />
        <mxCell id="uSz_ng-Ii92MaRqoNw-S-4" style="edgeStyle=orthogonalEdgeStyle;rounded=0;orthogonalLoop=1;jettySize=auto;html=1;exitX=0.5;exitY=1;exitDx=0;exitDy=0;exitPerimeter=0;entryX=0.5;entryY=0;entryDx=0;entryDy=0;" edge="1" parent="1" source="uSz_ng-Ii92MaRqoNw-S-2" target="uSz_ng-Ii92MaRqoNw-S-3">
          <mxGeometry relative="1" as="geometry" />
        </mxCell>
        <mxCell id="uSz_ng-Ii92MaRqoNw-S-2" value="Начало" style="strokeWidth=2;html=1;shape=mxgraph.flowchart.terminator;whiteSpace=wrap;" vertex="1" parent="1">
          <mxGeometry x="85" y="50" width="100" height="40" as="geometry" />
        </mxCell>
        <mxCell id="uSz_ng-Ii92MaRqoNw-S-5" style="edgeStyle=orthogonalEdgeStyle;rounded=0;orthogonalLoop=1;jettySize=auto;html=1;exitX=0.5;exitY=1;exitDx=0;exitDy=0;entryX=0.5;entryY=0;entryDx=0;entryDy=0;entryPerimeter=0;" edge="1" parent="1" source="uSz_ng-Ii92MaRqoNw-S-3" target="uSz_ng-Ii92MaRqoNw-S-6">
          <mxGeometry relative="1" as="geometry">
            <mxPoint x="135" y="380" as="targetPoint" />
          </mxGeometry>
        </mxCell>
        <mxCell id="uSz_ng-Ii92MaRqoNw-S-7" value="Нет" style="edgeLabel;html=1;align=center;verticalAlign=middle;resizable=0;points=[];" vertex="1" connectable="0" parent="uSz_ng-Ii92MaRqoNw-S-5">
          <mxGeometry x="-0.4571" relative="1" as="geometry">
            <mxPoint x="-15" y="3" as="offset" />
          </mxGeometry>
        </mxCell>
        <mxCell id="uSz_ng-Ii92MaRqoNw-S-9" style="edgeStyle=orthogonalEdgeStyle;rounded=0;orthogonalLoop=1;jettySize=auto;html=1;exitX=1;exitY=0.5;exitDx=0;exitDy=0;entryX=0;entryY=0.5;entryDx=0;entryDy=0;" edge="1" parent="1" source="uSz_ng-Ii92MaRqoNw-S-3" target="uSz_ng-Ii92MaRqoNw-S-8">
          <mxGeometry relative="1" as="geometry" />
        </mxCell>
        <mxCell id="uSz_ng-Ii92MaRqoNw-S-3" value="номер текущего отскока &lt;br&gt;&amp;gt; R" style="rhombus;whiteSpace=wrap;html=1;" vertex="1" parent="1">
          <mxGeometry x="50" y="120" width="170" height="80" as="geometry" />
        </mxCell>
        <mxCell id="uSz_ng-Ii92MaRqoNw-S-6" value="Конец" style="strokeWidth=2;html=1;shape=mxgraph.flowchart.terminator;whiteSpace=wrap;" vertex="1" parent="1">
          <mxGeometry x="85" y="520" width="100" height="40" as="geometry" />
        </mxCell>
        <mxCell id="uSz_ng-Ii92MaRqoNw-S-12" style="edgeStyle=orthogonalEdgeStyle;rounded=0;orthogonalLoop=1;jettySize=auto;html=1;exitX=0.5;exitY=1;exitDx=0;exitDy=0;entryX=0.5;entryY=0;entryDx=0;entryDy=0;" edge="1" parent="1" source="uSz_ng-Ii92MaRqoNw-S-8" target="uSz_ng-Ii92MaRqoNw-S-11">
          <mxGeometry relative="1" as="geometry" />
        </mxCell>
        <mxCell id="uSz_ng-Ii92MaRqoNw-S-8" value="p := max(throughput.r,&lt;br&gt;throughput.g,&lt;br&gt;throughput.b)&lt;br&gt;r := random[0, 1)" style="rounded=0;whiteSpace=wrap;html=1;" vertex="1" parent="1">
          <mxGeometry x="275" y="130" width="120" height="60" as="geometry" />
        </mxCell>
        <mxCell id="uSz_ng-Ii92MaRqoNw-S-17" style="edgeStyle=orthogonalEdgeStyle;rounded=0;orthogonalLoop=1;jettySize=auto;html=1;exitX=1;exitY=0.5;exitDx=0;exitDy=0;entryX=0;entryY=0.5;entryDx=0;entryDy=0;" edge="1" parent="1" source="uSz_ng-Ii92MaRqoNw-S-11" target="uSz_ng-Ii92MaRqoNw-S-14">
          <mxGeometry relative="1" as="geometry" />
        </mxCell>
        <mxCell id="uSz_ng-Ii92MaRqoNw-S-19" value="Да" style="edgeLabel;html=1;align=center;verticalAlign=middle;resizable=0;points=[];" vertex="1" connectable="0" parent="uSz_ng-Ii92MaRqoNw-S-17">
          <mxGeometry x="-0.3455" y="4" relative="1" as="geometry">
            <mxPoint as="offset" />
          </mxGeometry>
        </mxCell>
        <mxCell id="uSz_ng-Ii92MaRqoNw-S-22" style="edgeStyle=orthogonalEdgeStyle;rounded=0;orthogonalLoop=1;jettySize=auto;html=1;exitX=0.5;exitY=1;exitDx=0;exitDy=0;entryX=0.5;entryY=0;entryDx=0;entryDy=0;" edge="1" parent="1" source="uSz_ng-Ii92MaRqoNw-S-11" target="uSz_ng-Ii92MaRqoNw-S-21">
          <mxGeometry relative="1" as="geometry" />
        </mxCell>
        <mxCell id="uSz_ng-Ii92MaRqoNw-S-11" value="r &amp;gt; min(p, С)" style="rhombus;whiteSpace=wrap;html=1;" vertex="1" parent="1">
          <mxGeometry x="275" y="220" width="120" height="80" as="geometry" />
        </mxCell>
        <mxCell id="uSz_ng-Ii92MaRqoNw-S-20" style="edgeStyle=orthogonalEdgeStyle;rounded=0;orthogonalLoop=1;jettySize=auto;html=1;exitX=0.5;exitY=1;exitDx=0;exitDy=0;" edge="1" parent="1" source="uSz_ng-Ii92MaRqoNw-S-14">
          <mxGeometry relative="1" as="geometry">
            <mxPoint x="140" y="480" as="targetPoint" />
            <Array as="points">
              <mxPoint x="510" y="480" />
            </Array>
          </mxGeometry>
        </mxCell>
        <mxCell id="uSz_ng-Ii92MaRqoNw-S-14" value="завершить трассировку" style="rounded=0;whiteSpace=wrap;html=1;" vertex="1" parent="1">
          <mxGeometry x="450" y="230" width="120" height="60" as="geometry" />
        </mxCell>
        <mxCell id="uSz_ng-Ii92MaRqoNw-S-23" style="edgeStyle=orthogonalEdgeStyle;rounded=0;orthogonalLoop=1;jettySize=auto;html=1;exitX=0;exitY=0.5;exitDx=0;exitDy=0;" edge="1" parent="1" source="uSz_ng-Ii92MaRqoNw-S-21">
          <mxGeometry relative="1" as="geometry">
            <mxPoint x="140" y="360" as="targetPoint" />
          </mxGeometry>
        </mxCell>
        <mxCell id="uSz_ng-Ii92MaRqoNw-S-21" value="radiance *= 1.0 / p" style="rounded=0;whiteSpace=wrap;html=1;" vertex="1" parent="1">
          <mxGeometry x="275" y="330" width="120" height="60" as="geometry" />
        </mxCell>
      </root>
    </mxGraphModel>
  </diagram>
</mxfile>
